<?xml version="1.0" encoding="UTF-8"?>
<svg id="Layer_2" data-name="Layer 2" xmlns="http://www.w3.org/2000/svg" viewBox="0 0 449.53 500.38">
  <defs>
    <style>
      .cls-1 {
        fill: #fff;
        stroke-width: 0px;
      }
    </style>
  </defs>
  <g id="Layer_1-2" data-name="Layer 1">
    <path class="cls-1" d="M443.81,35.14l-.11,1.07c-.46,7.83-.19,15.74-.17,23.58.07,13.37.05,26.75-.04,40.12-.36,43.12-1.92,86.22-4.67,129.26-1.82,24.96-3.6,52.24-12.21,75.98-3.03,8.36-7.4,16.17-14.15,22.1-8.51,7.48-19.5,10.44-30.68,9.61-23.1-1.72-44.36-17.76-58.83-34.85-7.21-8.51-13.61-17.88-20.16-26.95v-.07s-2.24-3.02-2.24-3.02c-10.04-13.84-20.21-27.59-30.5-41.24l-56.57-76.15-39.7-53.53-31.21-42.28c-9.36-12.56-18.51-25.34-30.18-35.91C98.96,10.7,82.22.81,63.72.07c-1.58-.06-3.16-.11-4.74,0-16.09,1.48-30.22,8.55-40.56,21.11-7.44,9.04-12.4,20.62-14.37,32.13-2.33,13.67-2.09,28.26-2.43,42.1-.52,22.66-.88,45.33-1.09,67.99-1.51,100.64.22,201.31,5.19,301.85l.11-1.07c.46-7.83.19-15.74.17-23.58-.07-13.37-.05-26.75.04-40.12.36-43.12,1.92-86.22,4.67-129.26,1.82-24.96,3.6-52.24,12.21-75.97,3.03-8.36,7.4-16.17,14.15-22.1,8.51-7.48,19.5-10.44,30.68-9.61,23.1,1.72,44.36,17.76,58.83,34.85,7.73,9.13,14.54,19.25,21.59,28.92,10.31,14.21,20.75,28.33,31.32,42.35l124.01,167.25,3.47,4.7c9.36,12.56,18.51,25.34,30.18,35.91,13.42,12.16,30.16,22.05,48.66,22.79,1.58.06,3.16.11,4.74,0,16.09-1.48,30.22-8.55,40.57-21.11,7.44-9.04,12.4-20.62,14.37-32.13,2.33-13.67,2.09-28.26,2.43-42.1.52-22.66.88-45.32,1.09-67.99,1.51-100.65-.22-201.31-5.19-301.85Z"/>
  </g>
</svg>