<?xml version="1.0" encoding="UTF-8"?>
<svg id="Layer_1" data-name="Layer 1" xmlns="http://www.w3.org/2000/svg" viewBox="0 0 1000 1000">
  <defs>
    <style>
      .cls-1 {
        stroke-width: 0px;
      }
    </style>
  </defs>
  <path class="cls-1" d="M937.76,70.23l-.23,2.14c-.92,15.64-.38,31.45-.34,47.12.13,26.73.1,53.45-.08,80.18-.72,86.17-3.83,172.31-9.34,258.32-3.64,49.87-7.2,104.4-24.41,151.83-6.06,16.71-14.79,32.31-28.27,44.16-17,14.94-38.96,20.87-61.31,19.2-46.16-3.44-88.65-35.49-117.57-69.64-14.41-17.01-27.21-35.74-40.29-53.86v-.14s-4.48-6.04-4.48-6.04c-20.07-27.65-40.38-55.13-60.95-82.41l-113.06-152.18-79.35-106.97-62.37-84.5c-18.71-25.11-36.99-50.64-60.31-71.77C248.58,21.38,215.13,1.62,178.15.13c-3.16-.13-6.31-.22-9.47,0-32.15,2.95-60.4,17.08-81.07,42.18-14.87,18.06-24.79,41.2-28.72,64.22-4.66,27.31-4.18,56.48-4.85,84.13-1.04,45.29-1.76,90.58-2.18,135.88-3.02,201.14.44,402.32,10.37,603.23l.23-2.14c.92-15.64.38-31.45.34-47.12-.13-26.73-.1-53.45.08-80.17.72-86.17,3.83-172.31,9.34-258.32,3.64-49.87,7.2-104.4,24.41-151.83,6.06-16.71,14.79-32.31,28.27-44.16,17-14.94,38.96-20.87,61.31-19.2,46.16,3.44,88.65,35.49,117.57,69.64,15.45,18.24,29.05,38.47,43.14,57.8,20.6,28.41,41.46,56.62,62.59,84.65l247.84,334.24,6.94,9.4c18.71,25.11,36.99,50.64,60.31,71.77,26.82,24.3,60.27,44.06,97.25,45.55,3.16.13,6.31.22,9.47,0,32.15-2.95,60.4-17.08,81.07-42.18,14.87-18.06,24.79-41.2,28.72-64.22,4.66-27.31,4.18-56.48,4.85-84.13,1.04-45.29,1.76-90.58,2.18-135.88,3.02-201.14-.44-402.32-10.37-603.23Z"/>
</svg>