<?xml version="1.0" encoding="UTF-8"?>
<svg id="Layer_2" data-name="Layer 2" xmlns="http://www.w3.org/2000/svg" viewBox="0 0 764.58 241.02">
  <defs>
    <style>
      .cls-1 {
        stroke-width: 0px;
      }
    </style>
  </defs>
  <g id="Layer_1-2" data-name="Layer 1">
    <g>
      <path class="cls-1" d="M0,232.32V0l141.96,136.61c3.87,3.87,7.79,7.99,11.75,12.36,3.97,4.38,8.14,9.31,12.52,14.81V8.85h33.58v232.17L54.95,101.96c-3.87-3.76-7.61-7.73-11.22-11.91-3.61-4.17-7.05-8.55-10.3-13.13v155.39H0Z"/>
      <path class="cls-1" d="M480.21,121.04c0,15.87-2.98,30.89-8.93,45.03-5.95,14.15-14.63,26.76-26.03,37.85-11.5,11.09-24.48,19.59-38.92,25.49-14.45,5.9-29.61,8.85-45.49,8.85s-31.42-2.98-46.02-8.93c-14.6-5.95-27.5-14.42-38.69-25.42-11.4-11.09-20.05-23.66-25.95-37.7-5.9-14.04-8.85-29.1-8.85-45.18s2.95-31.04,8.85-45.18c5.9-14.14,14.55-26.81,25.95-38.01,11.39-11.09,24.32-19.54,38.77-25.34,14.45-5.8,29.76-8.7,45.94-8.7s31.32,2.9,45.72,8.7c14.4,5.8,27.3,14.25,38.7,25.34,11.39,11.3,20.07,24.04,26.03,38.24,5.95,14.2,8.93,29.18,8.93,44.95ZM442.36,121.04c0-11.3-2.06-22.03-6.18-32.21-4.12-10.17-10.05-19.23-17.78-27.17-7.53-7.83-16.26-13.86-26.18-18.09-9.92-4.22-20.38-6.33-31.37-6.33s-21.45,2.09-31.37,6.26c-9.92,4.17-18.75,10.23-26.48,18.16-7.73,7.84-13.64,16.84-17.71,27.02-4.07,10.18-6.11,20.96-6.11,32.36s2.04,21.98,6.11,32.05c4.07,10.07,9.97,19.08,17.71,27.02,7.73,7.94,16.54,13.99,26.41,18.16,9.87,4.17,20.35,6.26,31.44,6.26s21.24-2.08,31.06-6.26c9.82-4.17,18.65-10.23,26.48-18.16,7.73-7.94,13.66-16.97,17.78-27.09,4.12-10.12,6.18-20.78,6.18-31.98Z"/>
      <path class="cls-1" d="M522.49,232.32V8.85h36.33v223.47h-36.33Z"/>
      <path class="cls-1" d="M645.06,132.34v99.98h-34.04V8.85h50.68c14.86,0,26.38.97,34.57,2.9,8.19,1.93,15.19,5.14,20.99,9.62,6.92,5.39,12.26,12.36,16.03,20.91,3.76,8.55,5.65,17.91,5.65,28.09,0,17.91-4.33,31.93-12.97,42.05-8.65,10.13-21.42,16.21-38.31,18.24l76.93,101.66h-41.06l-74.34-99.98h-4.12ZM647.35,104.1h6.56c19.23,0,32-2.24,38.31-6.72,6.31-4.48,9.46-12.41,9.46-23.81,0-12.31-3.38-20.99-10.15-26.03-6.77-5.04-19.31-7.56-37.63-7.56h-6.56v64.11Z"/>
    </g>
  </g>
</svg>